<svg xmlns="http://www.w3.org/2000/svg" width="59" height="28" viewBox="0 0 59 28" fill="none">
  <g filter="url(#filter0_d_353_16080)">
    <path fill-rule="evenodd" clip-rule="evenodd" d="M21.543 4.08388C22 5.18688 22 6.58388 22 9.37988C22 12.1759 22 13.5739 21.543 14.6759C20.934 16.146 19.7661 17.3139 18.296 17.9229C17.194 18.3799 15.796 18.3799 13 18.3799H10C7.172 18.3799 5.757 18.3799 4.879 17.5009C4 16.6229 4 15.2079 4 12.3799V9.37988C4 6.58388 4 5.18688 4.457 4.08388C5.06596 2.61381 6.23393 1.44584 7.704 0.836883C8.807 0.379883 10.204 0.379883 13 0.379883C15.796 0.379883 17.194 0.379883 18.296 0.836883C19.7661 1.44584 20.934 2.61381 21.543 4.08388ZM9 7.37988C9 7.11467 9.10536 6.86031 9.29289 6.67278C9.48043 6.48524 9.73478 6.37988 10 6.37988H16C16.2652 6.37988 16.5196 6.48524 16.7071 6.67278C16.8946 6.86031 17 7.11467 17 7.37988C17 7.6451 16.8946 7.89945 16.7071 8.08699C16.5196 8.27453 16.2652 8.37988 16 8.37988H10C9.73478 8.37988 9.48043 8.27453 9.29289 8.08699C9.10536 7.89945 9 7.6451 9 7.37988ZM9 11.3799C9 11.1147 9.10536 10.8603 9.29289 10.6728C9.48043 10.4852 9.73478 10.3799 10 10.3799H11C11.2652 10.3799 11.5196 10.4852 11.7071 10.6728C11.8946 10.8603 12 11.1147 12 11.3799C12 11.6451 11.8946 11.8995 11.7071 12.087C11.5196 12.2745 11.2652 12.3799 11 12.3799H10C9.73478 12.3799 9.48043 12.2745 9.29289 12.087C9.10536 11.8995 9 11.6451 9 11.3799Z" fill="url(#paint0_linear_353_16080)"/>
  </g>
  <path d="M13.2086 10.6999C13.2246 10.5719 13.2726 10.4839 13.3526 10.4359C13.4486 10.3719 13.5366 10.3399 13.6166 10.3399C14.7046 10.3399 15.7206 10.3079 16.6646 10.2439C17.6246 10.1639 18.3766 10.1239 18.9206 10.1239C20.2806 10.1239 21.4166 10.2599 22.3286 10.5319C23.2566 10.8039 24.0006 11.2279 24.5606 11.8039C25.1366 12.3799 25.5446 13.1239 25.7846 14.0359C26.0246 14.9479 26.1446 16.0439 26.1446 17.3239C26.1446 18.6199 26.0086 19.8919 25.7366 21.1399C25.4806 22.3719 25.0246 23.4679 24.3686 24.4279C23.7126 25.3879 22.8246 26.1639 21.7046 26.7559C20.6006 27.3319 19.2006 27.6199 17.5046 27.6199C16.7206 27.6199 16.0006 27.6039 15.3446 27.5719C14.7046 27.5399 14.1526 27.4439 13.6886 27.2839C13.2246 27.1239 12.8646 26.8839 12.6086 26.5639C12.3526 26.2439 12.2246 25.8039 12.2246 25.2439C12.2246 25.0359 12.2326 24.7239 12.2486 24.3079C12.2806 23.8919 12.3126 23.3959 12.3446 22.8199C12.3926 22.2439 12.4406 21.6119 12.4886 20.9239C12.5526 20.2199 12.6166 19.4839 12.6806 18.7159C12.8086 17.1319 12.9046 15.8679 12.9686 14.9239C13.0486 13.9799 13.0966 13.2439 13.1126 12.7159C13.1446 12.1719 13.1606 11.7639 13.1606 11.4919C13.1766 11.2199 13.1926 10.9559 13.2086 10.6999ZM17.6726 23.8279C18.5686 23.8279 19.2806 23.6359 19.8086 23.2519C20.3526 22.8679 20.7686 22.3799 21.0566 21.7879C21.3446 21.1959 21.5366 20.5479 21.6326 19.8439C21.7286 19.1399 21.7766 18.4759 21.7766 17.8519C21.7766 17.1799 21.7286 16.5959 21.6326 16.0999C21.5526 15.5879 21.4006 15.1639 21.1766 14.8279C20.9686 14.4919 20.6726 14.2439 20.2886 14.0839C19.9046 13.9079 19.4246 13.8199 18.8486 13.8199C18.6726 13.8199 18.4486 13.8279 18.1766 13.8439C17.9046 13.8599 17.5766 13.8839 17.1926 13.9159C17.1606 14.5079 17.1206 15.2119 17.0726 16.0279C17.0246 16.8279 16.9686 17.6759 16.9046 18.5719C16.8566 19.4519 16.8006 20.3479 16.7366 21.2599C16.6726 22.1559 16.6086 22.9879 16.5446 23.7559C16.7846 23.7879 17.0006 23.8119 17.1926 23.8279C17.3846 23.8279 17.5446 23.8279 17.6726 23.8279Z" fill="white"/>
  <path d="M30.441 27.3799C29.945 27.3799 29.537 27.3319 29.217 27.2359C28.913 27.1239 28.665 26.9719 28.473 26.7799C28.297 26.5879 28.169 26.3559 28.089 26.0839C28.025 25.7959 27.993 25.4679 27.993 25.0999C27.993 24.8599 28.001 24.5239 28.017 24.0919C28.049 23.6439 28.097 23.0359 28.161 22.2679C28.225 21.4839 28.297 20.4999 28.377 19.3159C28.473 18.1159 28.585 16.6359 28.713 14.8759C28.729 14.5239 28.769 14.3159 28.833 14.2519C28.881 14.2039 29.009 14.1799 29.217 14.1799H30.153C30.649 14.1799 31.049 14.2279 31.353 14.3239C31.673 14.4199 31.921 14.5639 32.097 14.7559C32.289 14.9479 32.417 15.1799 32.481 15.4519C32.561 15.7239 32.601 16.0279 32.601 16.3639C32.601 16.6039 32.585 16.9639 32.553 17.4439C32.521 17.9239 32.473 18.5799 32.409 19.4119C32.361 20.2279 32.289 21.2519 32.193 22.4839C32.097 23.6999 31.977 25.1719 31.833 26.8999C31.817 27.0919 31.777 27.2199 31.713 27.2839C31.649 27.3479 31.513 27.3799 31.305 27.3799H30.441ZM28.737 11.3479C28.737 10.7079 28.969 10.2039 29.433 9.83594C29.897 9.46794 30.521 9.28394 31.305 9.28394C31.993 9.28394 32.489 9.42794 32.793 9.71593C33.113 9.98793 33.273 10.3559 33.273 10.8199C33.273 11.4119 33.049 11.9079 32.601 12.3079C32.169 12.6919 31.529 12.8839 30.681 12.8839C29.385 12.8839 28.737 12.3719 28.737 11.3479Z" fill="white"/>
  <path d="M42.471 19.9159C42.375 19.9159 42.263 19.9159 42.135 19.9159C42.023 19.8999 41.911 19.8839 41.799 19.8679C41.687 19.8359 41.591 19.8039 41.511 19.7719C41.431 19.7239 41.391 19.6679 41.391 19.6039C41.391 19.3959 41.399 19.2039 41.415 19.0279C41.431 18.8519 41.439 18.6679 41.439 18.4759C41.439 18.1239 41.391 17.8359 41.295 17.6119C41.199 17.3879 41.007 17.2759 40.719 17.2759C40.271 17.2759 39.895 17.5719 39.591 18.1639C39.303 18.7399 39.119 19.6119 39.039 20.7799C39.007 21.2919 38.959 21.8759 38.895 22.5319C38.847 23.1719 38.799 23.7959 38.751 24.4039C38.703 24.9959 38.663 25.5239 38.631 25.9879C38.599 26.4519 38.583 26.7559 38.583 26.8999C38.583 27.0599 38.527 27.1799 38.415 27.2599C38.303 27.3399 38.183 27.3799 38.055 27.3799H37.191C36.695 27.3799 36.287 27.3319 35.967 27.2359C35.663 27.1239 35.415 26.9719 35.223 26.7799C35.047 26.5879 34.919 26.3559 34.839 26.0839C34.775 25.7959 34.743 25.4679 34.743 25.0999C34.743 24.8599 34.751 24.5239 34.767 24.0919C34.799 23.6439 34.847 23.0359 34.911 22.2679C34.975 21.4839 35.047 20.4999 35.127 19.3159C35.223 18.1159 35.335 16.6359 35.463 14.8759C35.495 14.4119 35.663 14.1799 35.967 14.1799H36.903C37.351 14.1799 37.727 14.2279 38.031 14.3239C38.335 14.4199 38.583 14.5559 38.775 14.7319C38.967 14.8919 39.103 15.0839 39.183 15.3079C39.279 15.5319 39.343 15.7639 39.375 16.0039C39.567 15.6359 39.791 15.3239 40.047 15.0679C40.319 14.7959 40.599 14.5799 40.887 14.4199C41.175 14.2439 41.471 14.1239 41.775 14.0599C42.079 13.9799 42.359 13.9399 42.615 13.9399C42.919 13.9399 43.223 13.9959 43.527 14.1079C43.847 14.2199 44.135 14.3879 44.391 14.6119C44.647 14.8359 44.847 15.1239 44.991 15.4759C45.151 15.8279 45.231 16.2439 45.231 16.7239C45.231 17.1559 45.167 17.5639 45.039 17.9479C44.911 18.3319 44.727 18.6759 44.487 18.9799C44.247 19.2679 43.951 19.4999 43.599 19.6759C43.263 19.8359 42.887 19.9159 42.471 19.9159Z" fill="white"/>
  <path d="M51.5794 27.6199C50.4754 27.6199 49.5554 27.4679 48.8194 27.1639C48.0994 26.8439 47.5234 26.4119 47.0914 25.8679C46.6594 25.3239 46.3554 24.6919 46.1794 23.9719C46.0034 23.2359 45.9154 22.4519 45.9154 21.6199C45.9154 20.6599 46.0274 19.7239 46.2514 18.8119C46.4914 17.8839 46.8914 17.0599 47.4514 16.3399C48.0114 15.6199 48.7474 15.0439 49.6594 14.6119C50.5874 14.1639 51.7394 13.9399 53.1154 13.9399C55.1314 13.9399 56.5714 14.4359 57.4354 15.4279C58.3154 16.4039 58.7554 17.7799 58.7554 19.5559C58.7554 20.0519 58.7154 20.6039 58.6354 21.2119C58.5714 21.8039 58.4354 22.3959 58.2274 22.9879C58.0354 23.5799 57.7634 24.1559 57.4114 24.7159C57.0754 25.2759 56.6434 25.7719 56.1154 26.2039C55.5874 26.6359 54.9474 26.9799 54.1954 27.2359C53.4594 27.4919 52.5874 27.6199 51.5794 27.6199ZM52.7074 17.1319C52.0994 17.1319 51.6114 17.2919 51.2434 17.6119C50.8914 17.9159 50.6194 18.2919 50.4274 18.7399C50.2514 19.1719 50.1314 19.6359 50.0674 20.1319C50.0194 20.6119 49.9954 21.0199 49.9954 21.3559C49.9954 22.4119 50.1634 23.1879 50.4994 23.6839C50.8354 24.1799 51.3154 24.4279 51.9394 24.4279C52.4994 24.4279 52.9554 24.2519 53.3074 23.8999C53.6754 23.5479 53.9554 23.1239 54.1474 22.6279C54.3554 22.1319 54.4914 21.6119 54.5554 21.0679C54.6354 20.5239 54.6754 20.0679 54.6754 19.6999C54.6754 18.8999 54.5234 18.2759 54.2194 17.8279C53.9314 17.3639 53.4274 17.1319 52.7074 17.1319Z" fill="white"/>
  <defs>
    <filter id="filter0_d_353_16080" x="0" y="0.379883" width="26" height="26" filterUnits="userSpaceOnUse" color-interpolation-filters="sRGB">
      <feFlood flood-opacity="0" result="BackgroundImageFix"/>
      <feColorMatrix in="SourceAlpha" type="matrix" values="0 0 0 0 0 0 0 0 0 0 0 0 0 0 0 0 0 0 127 0" result="hardAlpha"/>
      <feOffset dy="4"/>
      <feGaussianBlur stdDeviation="2"/>
      <feComposite in2="hardAlpha" operator="out"/>
      <feColorMatrix type="matrix" values="0 0 0 0 0 0 0 0 0 0 0 0 0 0 0 0 0 0 0.25 0"/>
      <feBlend mode="normal" in2="BackgroundImageFix" result="effect1_dropShadow_353_16080"/>
      <feBlend mode="normal" in="SourceGraphic" in2="effect1_dropShadow_353_16080" result="shape"/>
    </filter>
    <linearGradient id="paint0_linear_353_16080" x1="4.34495" y1="1.0184" x2="21.4476" y2="18.908" gradientUnits="userSpaceOnUse">
      <stop stop-color="#3DE4FF"/>
      <stop offset="1" stop-color="#007CFF"/>
    </linearGradient>
  </defs>
</svg>